<?xml version="1.0" encoding="iso-8859-1"?>
<!-- Generator: Adobe Illustrator 19.0.0, SVG Export Plug-In . SVG Version: 6.00 Build 0)  -->
<svg version="1.1" id="Layer_1" xmlns="http://www.w3.org/2000/svg" xmlns:xlink="http://www.w3.org/1999/xlink" x="0px" y="0px"
	 viewBox="0 0 512 512" style="enable-background:new 0 0 512 512;" xml:space="preserve">
<g transform="translate(1 1)">
	<g>
		<path style="fill:#00DA6C;" d="M306.2,502.467H203.8v-25.6c0-5.12,4.267-8.533,8.533-8.533h85.333c5.12,0,8.533,4.267,8.533,8.533
			V502.467z"/>
		<path style="fill:#00DA6C;" d="M297.667,468.333h-85.333l1.707-3.413c10.24-20.48,15.36-41.813,15.36-64.853l0,0h51.2l0,0
			c0,22.187,5.12,44.373,15.36,64.853L297.667,468.333z"/>
		<polygon style="fill:#00DA6C;" points="229.4,41.667 280.6,41.667 280.6,7.533 229.4,7.533 		"/>
		<polygon style="fill:#00DA6C;" points="229.4,400.067 280.6,400.067 280.6,280.6 229.4,280.6 		"/>
	</g>
	<path style="fill:#FFA800;" d="M476.867,280.6H203.8c-14.507,0-25.6-11.093-25.6-25.6V67.267c0-14.507,11.093-25.6,25.6-25.6
		h273.067c14.507,0,25.6,11.093,25.6,25.6V255C502.467,269.507,491.373,280.6,476.867,280.6"/>
	<path style="fill:#FFFFFF;" d="M306.2,280.6H33.133c-14.507,0-25.6-11.093-25.6-25.6V67.267c0-14.507,11.093-25.6,25.6-25.6H306.2
		c14.507,0,25.6,11.093,25.6,25.6V255C331.8,269.507,320.707,280.6,306.2,280.6"/>
	<path style="fill:#FFE100;" d="M451.267,280.6H58.733c-14.507,0-25.6-11.093-25.6-25.6V67.267c0-14.507,11.093-25.6,25.6-25.6
		h392.533c14.507,0,25.6,11.093,25.6,25.6V255C476.867,269.507,465.773,280.6,451.267,280.6"/>
	<g>
		<polygon style="fill:#63D3FD;" points="135.533,75.8 41.667,169.667 67.267,195.267 135.533,127 135.533,127 135.533,127 
			203.8,195.267 229.4,169.667 		"/>
		<polygon style="fill:#63D3FD;" points="135.533,127 84.333,178.2 84.333,246.467 186.733,246.467 186.733,178.2 		"/>
	</g>
	<path d="M306.2,511H203.8c-5.12,0-8.533-3.413-8.533-8.533v-25.6c0-9.387,7.68-17.067,17.067-17.067h85.333
		c9.387,0,17.067,7.68,17.067,17.067v25.6C314.733,507.587,311.32,511,306.2,511z M212.333,493.933h85.333v-17.067h-85.333V493.933z
		"/>
	<path d="M297.667,476.867h-85.333c-2.56,0-5.973-1.707-7.68-4.267c-1.707-2.56-1.707-5.973,0-8.533l1.707-3.413
		c9.387-18.773,14.507-40.107,14.507-60.587c0-5.12,3.413-8.533,8.533-8.533h51.2c5.12,0,8.533,3.413,8.533,8.533
		c0,21.333,5.12,41.813,14.507,60.587l1.707,3.413c1.707,2.56,0.853,5.973,0,8.533C304.493,475.16,300.227,476.867,297.667,476.867z
		 M225.987,459.8h58.027c-6.827-16.213-11.093-33.28-11.947-51.2h-34.133C237.08,426.52,232.813,443.587,225.987,459.8z"/>
	<path d="M476.867,289.133H33.133C14.36,289.133-1,273.773-1,255V67.267c0-18.773,15.36-34.133,34.133-34.133h443.733
		c18.773,0,34.133,15.36,34.133,34.133V255C511,273.773,495.64,289.133,476.867,289.133z M33.133,50.2
		c-9.387,0-17.067,7.68-17.067,17.067V255c0,9.387,7.68,17.067,17.067,17.067h443.733c9.387,0,17.067-7.68,17.067-17.067V67.267
		c0-9.387-7.68-17.067-17.067-17.067H33.133z"/>
	<path d="M280.6,50.2h-51.2c-5.12,0-8.533-3.413-8.533-8.533V7.533c0-5.12,3.413-8.533,8.533-8.533h51.2
		c5.12,0,8.533,3.413,8.533,8.533v34.133C289.133,46.787,285.72,50.2,280.6,50.2z M237.933,33.133h34.133V16.067h-34.133V33.133z"/>
	<path d="M280.6,408.6h-51.2c-5.12,0-8.533-3.413-8.533-8.533V280.6c0-5.12,3.413-8.533,8.533-8.533h51.2
		c5.12,0,8.533,3.413,8.533,8.533v119.467C289.133,405.187,285.72,408.6,280.6,408.6z M237.933,391.533h34.133v-102.4h-34.133
		V391.533z"/>
	<path d="M203.8,203.8L203.8,203.8c-2.56,0-4.267-0.853-5.973-2.56l-62.293-62.293L73.24,201.24c-1.707,1.707-3.413,2.56-5.973,2.56
		l0,0c-2.56,0-4.267-0.853-5.973-2.56l-25.6-25.6c-3.413-3.413-3.413-8.533,0-11.947l93.867-93.867
		c1.707-1.707,3.413-2.56,5.973-2.56l0,0c2.56,0,4.267,0.853,5.973,2.56l93.867,93.867c1.707,1.707,2.56,3.413,2.56,5.973
		c0,2.56-0.853,4.267-2.56,5.973l-25.6,25.6C208.067,202.947,206.36,203.8,203.8,203.8z M137.24,118.467
		c1.707,0,3.413,0.853,4.267,2.56L203.8,183.32l13.653-13.653l-81.92-81.92l-81.92,81.92l13.653,13.653l62.293-62.293
		c1.707-1.707,3.413-2.56,5.973-2.56l0,0C136.387,118.467,137.24,118.467,137.24,118.467z"/>
	<path d="M186.733,255h-102.4c-5.12,0-8.533-3.413-8.533-8.533V178.2c0-2.56,0.853-4.267,2.56-5.973l51.2-51.2
		c1.707-1.707,3.413-2.56,5.973-2.56l0,0c2.56,0,4.267,0.853,5.973,2.56l51.2,51.2c1.707,1.707,2.56,3.413,2.56,5.973v68.267
		C195.267,251.587,191.853,255,186.733,255z M92.867,237.933H178.2v-56.32l-42.667-42.667l-42.667,42.667V237.933z"/>
	<path d="M468.333,118.467H272.067c-5.12,0-8.533-3.413-8.533-8.533s3.413-8.533,8.533-8.533h196.267
		c5.12,0,8.533,3.413,8.533,8.533S473.453,118.467,468.333,118.467z"/>
	<path d="M468.333,169.667H357.4c-5.12,0-8.533-3.413-8.533-8.533c0-5.12,3.413-8.533,8.533-8.533h110.933
		c5.12,0,8.533,3.413,8.533,8.533C476.867,166.253,473.453,169.667,468.333,169.667z"/>
	<path d="M323.267,169.667h-51.2c-5.12,0-8.533-3.413-8.533-8.533c0-5.12,3.413-8.533,8.533-8.533h51.2
		c5.12,0,8.533,3.413,8.533,8.533C331.8,166.253,328.387,169.667,323.267,169.667z"/>
	<path d="M468.333,220.867h-42.667c-5.12,0-8.533-3.413-8.533-8.533c0-5.12,3.413-8.533,8.533-8.533h42.667
		c5.12,0,8.533,3.413,8.533,8.533C476.867,217.453,473.453,220.867,468.333,220.867z"/>
	<path d="M391.533,220.867H272.067c-5.12,0-8.533-3.413-8.533-8.533c0-5.12,3.413-8.533,8.533-8.533h119.467
		c5.12,0,8.533,3.413,8.533,8.533C400.067,217.453,396.653,220.867,391.533,220.867z"/>
</g>
<g>
</g>
<g>
</g>
<g>
</g>
<g>
</g>
<g>
</g>
<g>
</g>
<g>
</g>
<g>
</g>
<g>
</g>
<g>
</g>
<g>
</g>
<g>
</g>
<g>
</g>
<g>
</g>
<g>
</g>
</svg>
