<?xml version="1.0" encoding="iso-8859-1"?>
<!-- Generator: Adobe Illustrator 19.0.0, SVG Export Plug-In . SVG Version: 6.00 Build 0)  -->
<svg version="1.1" id="Layer_1" xmlns="http://www.w3.org/2000/svg" xmlns:xlink="http://www.w3.org/1999/xlink" x="0px" y="0px"
	 viewBox="0 0 512 512" style="enable-background:new 0 0 512 512;" xml:space="preserve">
<g transform="translate(1 1)">
	<g>
		<path style="fill:#FFDD09;" d="M409.453,364.227c-10.24-9.387-23.893-9.387-34.987,0l-23.04,21.333l9.387,8.533
			c7.68,6.827,7.68,18.773,0.853,26.453l0,0c-6.827,6.827-17.92,6.827-24.747,0.853l-13.653-11.093l0,0v92.16H459.8V411.16
			L409.453,364.227z"/>
		<path style="fill:#FFDD09;" d="M223.427,327.533l-73.387,66.56c-7.68,6.827-7.68,18.773-0.853,26.453
			c6.827,6.827,17.92,6.827,24.747,0.853l63.147-56.32c11.093-9.387,24.747-9.387,34.987,0l62.293,56.32
			c6.827,6.827,17.92,5.973,24.747-0.853l0,0c7.68-7.68,6.827-18.773-0.853-26.453l-72.533-66.56
			C269.507,310.467,241.347,310.467,223.427,327.533"/>
		<path style="fill:#FFDD09;" d="M237.933,364.227l-51.2,46.08v92.16h136.533V411.16l-50.347-46.08
			C262.68,354.84,248.173,354.84,237.933,364.227"/>
		<path style="fill:#FFDD09;" d="M186.733,360.813l-35.84-33.28c-17.92-17.067-46.08-17.067-64,0l-73.387,66.56
			c-7.68,6.827-7.68,18.773-0.853,26.453c6.827,6.827,17.92,6.827,24.747,0.853l63.147-56.32c11.093-9.387,24.747-9.387,34.987,0
			l23.04,20.48L186.733,360.813z"/>
		<path style="fill:#FFDD09;" d="M174.787,420.547c-6.827,6.827-17.92,5.973-24.747-0.853c-7.68-7.68-6.827-18.773,0.853-26.453
			l9.387-8.533l-23.04-21.333c-10.24-9.387-23.893-9.387-34.987,0l-51.2,46.08v93.013h136.533V411.16l0,0L174.787,420.547z"/>
	</g>
	<g>
		<polygon style="fill:#1CD759;" points="237.933,502.467 272.067,502.467 272.067,451.267 237.933,451.267 		"/>
		<polygon style="fill:#1CD759;" points="101.4,502.467 135.533,502.467 135.533,451.267 101.4,451.267 		"/>
		<polygon style="fill:#1CD759;" points="374.467,502.467 408.6,502.467 408.6,451.267 374.467,451.267 		"/>
	</g>
	<path style="fill:#FFDD09;" d="M496.493,394.093l-72.533-66.56c-17.92-17.067-46.08-17.067-64,0l-36.693,33.28l27.307,24.747
		l23.893-21.333c11.093-9.387,24.747-9.387,34.987,0l62.293,56.32c6.827,6.827,17.92,5.973,24.747-0.853l0,0
		C504.173,412.867,504.173,400.92,496.493,394.093"/>
	<path style="fill:#FD9808;" d="M255,7.533c-52.053,0-93.867,41.813-93.867,93.867c0,21.333,8.533,40.96,19.627,57.173
		c9.387,13.653,17.92,27.307,26.453,40.107C224.28,225.133,239.64,252.44,255,280.6c14.507-28.16,30.72-55.467,47.787-81.92
		c8.533-12.8,17.067-26.453,26.453-40.107c11.093-16.213,19.627-35.84,19.627-57.173C348.867,49.347,307.053,7.533,255,7.533"/>
	<path style="fill:#FFDD09;" d="M246.467,7.533c-42.667,0-76.8,41.813-76.8,93.867c0,21.333,6.827,40.96,16.213,57.173
		c7.68,13.653,15.36,27.307,22.187,40.107c13.653,26.453,26.453,53.76,38.4,81.92c11.947-28.16,24.747-55.467,38.4-81.92
		c6.827-12.8,13.653-26.453,22.187-40.107c9.387-16.213,16.213-35.84,16.213-57.173C323.267,49.347,289.133,7.533,246.467,7.533"/>
	<path style="fill:#FFFFFF;" d="M255,7.533c1.707,0,3.413,0,4.267,0c-40.107,2.56-72.533,43.52-72.533,93.867
		c0,21.333,6.827,40.96,16.213,57.173c7.68,13.653,15.36,27.307,22.187,40.107c12.8,23.893,23.893,47.787,34.987,73.387
		c-1.707,2.56-3.413,5.973-4.267,8.533c-14.507-28.16-30.72-55.467-47.787-81.92c-8.533-12.8-17.067-26.453-26.453-40.107
		c-11.947-16.213-20.48-35.84-20.48-57.173C161.133,49.347,202.947,7.533,255,7.533"/>
	<path d="M255,289.133c-3.413,0-5.973-1.707-7.68-4.267c-14.507-28.16-30.72-55.467-46.933-81.067
		c-8.533-13.653-17.92-26.453-26.453-39.253C159.427,143.213,152.6,122.733,152.6,101.4C152.6,45.08,198.68-1,255-1l0,0
		c56.32,0,102.4,46.08,102.4,102.4c0,21.333-6.827,41.813-21.333,62.293c-9.387,12.8-17.92,25.6-26.453,39.253
		c-16.213,25.6-32.427,52.907-46.933,81.067C260.973,287.427,258.413,289.133,255,289.133z M255,16.067
		c-46.933,0-85.333,38.4-85.333,85.333c0,17.92,5.973,34.987,17.92,52.907c9.387,12.8,17.92,26.453,26.453,40.107
		c13.653,21.333,27.307,44.373,40.107,68.267c12.8-23.893,26.453-46.933,40.107-68.267c9.387-13.653,17.92-27.307,26.453-40.107
		c11.947-17.067,17.92-34.987,17.92-52.907C340.333,54.467,301.933,16.067,255,16.067L255,16.067z"/>
	<path d="M161.987,434.2c-6.827,0-13.653-2.56-18.773-7.68c-5.12-5.12-7.68-11.947-7.68-19.627s3.413-14.507,8.533-18.773
		l73.387-66.56c21.333-19.627,54.613-19.627,75.947,0l72.533,66.56c5.12,5.12,8.533,11.947,8.533,18.773s-2.56,14.507-7.68,19.627
		c-10.24,10.24-26.453,10.24-36.693,0.853l-62.293-56.32c-7.68-6.827-16.213-6.827-23.893,0l-63.147,56.32
		C174.787,431.64,168.813,434.2,161.987,434.2z M255,323.267c-9.387,0-18.773,3.413-26.453,10.24l0,0l-72.533,66.56
		c-1.707,1.707-2.56,4.267-3.413,6.827c0,2.56,0.853,5.12,2.56,6.827c3.413,3.413,9.387,3.413,13.653,0l63.147-56.32
		c13.653-12.8,32.427-12.8,46.08,0l62.293,56.32c4.267,3.413,9.387,3.413,13.653,0c1.707-1.707,2.56-4.267,2.56-6.827
		s-0.853-5.12-3.413-6.827l-72.533-66.56C274.627,326.68,265.24,323.267,255,323.267z M223.427,327.533L223.427,327.533
		L223.427,327.533z"/>
	<path d="M323.267,511H186.733c-5.12,0-8.533-3.413-8.533-8.533v-92.16c0-2.56,0.853-5.12,2.56-5.973l51.2-46.08
		c13.653-12.8,32.427-12.8,46.08,0l50.347,46.08c1.707,1.707,2.56,4.267,2.56,5.973v92.16C331.8,507.587,328.387,511,323.267,511z
		 M195.267,493.933h119.467v-79.36l-47.787-43.52c-6.827-6.827-16.213-6.827-23.893,0l0,0l-47.787,43.52V493.933z M237.933,364.227
		L237.933,364.227L237.933,364.227z"/>
	<path d="M272.067,511h-34.133c-5.12,0-8.533-3.413-8.533-8.533v-51.2c0-5.12,3.413-8.533,8.533-8.533h34.133
		c5.12,0,8.533,3.413,8.533,8.533v51.2C280.6,507.587,277.187,511,272.067,511z M246.467,493.933h17.067V459.8h-17.067V493.933z"/>
	<path d="M135.533,511H101.4c-5.12,0-8.533-3.413-8.533-8.533v-51.2c0-5.12,3.413-8.533,8.533-8.533h34.133
		c5.12,0,8.533,3.413,8.533,8.533v51.2C144.067,507.587,140.653,511,135.533,511z M109.933,493.933H127V459.8h-17.067V493.933z"/>
	<path d="M408.6,511h-34.133c-5.12,0-8.533-3.413-8.533-8.533v-51.2c0-5.12,3.413-8.533,8.533-8.533H408.6
		c5.12,0,8.533,3.413,8.533,8.533v51.2C417.133,507.587,413.72,511,408.6,511z M383,493.933h17.067V459.8H383V493.933z"/>
	<path d="M25.453,434.2c-6.827,0-13.653-2.56-18.773-7.68S-1,414.573-1,406.893c0-7.68,3.413-14.507,8.533-18.773l73.387-66.56
		c21.333-19.627,54.613-19.627,75.947,0l35.84,33.28c1.707,1.707,2.56,4.267,2.56,5.973c0,2.56-0.853,4.267-2.56,5.973
		L165.4,391.533c-3.413,2.56-8.533,2.56-11.093,0l-23.04-20.48c-7.68-6.827-16.213-6.827-23.893,0l-63.147,56.32
		C38.253,431.64,32.28,434.2,25.453,434.2z M118.467,323.267c-9.387,0-18.773,3.413-26.453,10.24l-72.533,66.56
		c-2.56,2.56-3.413,4.267-3.413,6.827s0.853,5.12,2.56,6.827c3.413,3.413,9.387,3.413,13.653,0l63.147-56.32
		c13.653-12.8,32.427-12.8,46.08,0l17.067,15.36l14.507-13.653l-29.013-26.453C138.093,326.68,128.707,323.267,118.467,323.267z"/>
	<path d="M186.733,511H50.2c-5.12,0-8.533-3.413-8.533-8.533v-92.16c0-2.56,0.853-5.12,2.56-5.973l51.2-46.08
		c13.653-12.8,32.427-12.8,46.08,0l23.04,21.333c1.707,1.707,2.56,4.267,2.56,5.973c0,1.707-0.853,4.267-2.56,5.973l-9.387,8.533
		c-1.707,1.707-2.56,4.267-3.413,6.827s0.853,5.12,2.56,6.827c3.413,3.413,9.387,3.413,13.653,0l0,0l11.947-10.24
		c3.413-2.56,8.533-2.56,11.093,0c1.707,1.707,3.413,4.267,3.413,6.827v92.16C195.267,507.587,191.853,511,186.733,511z
		 M58.733,493.933H178.2V429.08c-10.24,7.68-25.6,6.827-34.987-2.56c-5.12-5.12-7.68-11.947-7.68-19.627s3.413-14.507,8.533-18.773
		l2.56-2.56l-16.213-14.507c-6.827-6.827-16.213-6.827-23.893,0l-47.787,43.52V493.933z"/>
	<path d="M484.547,434.2c-6.827,0-12.8-2.56-17.92-6.827l-62.293-56.32c-7.68-6.827-16.213-6.827-23.893,0l-23.893,20.48
		c-3.413,2.56-8.533,2.56-11.093,0l-27.307-24.747c-1.707-1.707-2.56-4.267-2.56-5.973c0-2.56,0.853-4.267,2.56-5.973l35.84-33.28
		c21.333-19.627,54.613-19.627,75.947,0l72.533,66.56l0,0c5.12,5.12,8.533,11.947,8.533,18.773c0,7.68-2.56,14.507-7.68,19.627
		C498.2,431.64,491.373,434.2,484.547,434.2z M391.533,348.867c8.533,0,16.213,3.413,23.04,9.387l62.293,56.32
		c4.267,3.413,9.387,3.413,13.653,0c1.707-1.707,2.56-4.267,2.56-6.827s-0.853-5.12-3.413-6.827l-72.533-66.56
		c-14.507-13.653-38.4-13.653-52.907,0l-29.013,26.453l14.507,13.653l17.92-16.213C375.32,352.28,383.853,348.867,391.533,348.867z"
		/>
	<path d="M459.8,511H323.267c-5.12,0-8.533-3.413-8.533-8.533v-92.16c0-2.56,0.853-4.267,2.56-5.973
		c3.413-3.413,8.533-3.413,11.947-0.853l11.947,10.24c4.267,3.413,9.387,3.413,13.653,0c1.707-1.707,2.56-4.267,2.56-6.827
		s-0.853-5.12-3.413-6.827l-9.387-8.533c-1.707-1.707-2.56-4.267-2.56-5.973c0-1.707,0.853-4.267,2.56-5.973l23.04-21.333
		c13.653-12.8,32.427-12.8,46.08,0l0,0l50.347,46.08c1.707,1.707,2.56,4.267,2.56,5.973v92.16C468.333,507.587,464.92,511,459.8,511
		z M331.8,493.933h119.467v-79.36l-47.787-43.52c-7.68-6.827-16.213-6.827-23.893,0l-16.213,14.507l2.56,1.707
		c5.12,5.12,8.533,11.947,8.533,18.773s-2.56,14.507-7.68,19.627c-9.387,9.387-23.893,10.24-34.987,2.56V493.933z"/>
	<path d="M297.667,152.6c-2.56,0-4.267-0.853-5.973-2.56L206.36,64.707c-3.413-3.413-3.413-8.533,0-11.947s8.533-3.413,11.947,0
		l85.333,85.333c3.413,3.413,3.413,8.533,0,11.947C301.933,151.747,300.227,152.6,297.667,152.6z"/>
	<path d="M212.333,152.6c-2.56,0-4.267-0.853-5.973-2.56c-3.413-3.413-3.413-8.533,0-11.947l85.333-85.333
		c3.413-3.413,8.533-3.413,11.947,0c3.413,3.413,3.413,8.533,0,11.947l-85.333,85.333C216.6,151.747,214.893,152.6,212.333,152.6z"
		/>
</g>
<g>
</g>
<g>
</g>
<g>
</g>
<g>
</g>
<g>
</g>
<g>
</g>
<g>
</g>
<g>
</g>
<g>
</g>
<g>
</g>
<g>
</g>
<g>
</g>
<g>
</g>
<g>
</g>
<g>
</g>
</svg>
